<svg width="153" height="24" viewBox="0 0 153 24" fill="none" xmlns="http://www.w3.org/2000/svg">
<path d="M0 20C0 8.95431 8.9543 0 20 0H137V4C137 15.0457 128.046 24 117 24H0V20Z" fill="white"/>
<path d="M49.4219 15.6406C49.3958 15.7292 49.362 15.8021 49.3203 15.8594C49.2786 15.9115 49.2109 15.9531 49.1172 15.9844C49.0234 16.0104 48.8958 16.026 48.7344 16.0312C48.5729 16.0417 48.362 16.0469 48.1016 16.0469C47.8932 16.0469 47.7135 16.0443 47.5625 16.0391C47.4167 16.0391 47.2917 16.0339 47.1875 16.0234C47.0833 16.013 46.9974 15.9974 46.9297 15.9766C46.8672 15.9557 46.8125 15.9297 46.7656 15.8984C46.724 15.8672 46.6901 15.8307 46.6641 15.7891C46.6432 15.7422 46.6224 15.6849 46.6016 15.6172L43.5938 6.65625C43.5312 6.46875 43.4922 6.32031 43.4766 6.21094C43.4661 6.10156 43.4922 6.02083 43.5547 5.96875C43.6224 5.91146 43.7344 5.8776 43.8906 5.86719C44.0469 5.85156 44.2656 5.84375 44.5469 5.84375C44.7865 5.84375 44.974 5.84896 45.1094 5.85938C45.2448 5.86979 45.349 5.88802 45.4219 5.91406C45.4948 5.9401 45.5443 5.97917 45.5703 6.03125C45.6016 6.08333 45.6302 6.14844 45.6562 6.22656L48.1172 14.0234H48.125L50.5391 6.26562C50.5599 6.17708 50.5859 6.10677 50.6172 6.05469C50.6484 5.9974 50.7005 5.95312 50.7734 5.92188C50.8516 5.89062 50.9609 5.86979 51.1016 5.85938C51.2422 5.84896 51.4349 5.84375 51.6797 5.84375C51.9193 5.84375 52.1042 5.85156 52.2344 5.86719C52.3698 5.88281 52.4609 5.92188 52.5078 5.98438C52.5599 6.04167 52.5755 6.125 52.5547 6.23438C52.5391 6.34375 52.5 6.48958 52.4375 6.67188L49.4219 15.6406ZM59.3516 12.0469C59.3516 12.2865 59.2969 12.4635 59.1875 12.5781C59.0833 12.6927 58.9375 12.75 58.75 12.75H54.5078C54.5078 13.0469 54.5417 13.3177 54.6094 13.5625C54.6823 13.8021 54.7943 14.0078 54.9453 14.1797C55.1016 14.3464 55.2995 14.474 55.5391 14.5625C55.7839 14.651 56.0755 14.6953 56.4141 14.6953C56.7578 14.6953 57.0599 14.6719 57.3203 14.625C57.5807 14.5729 57.8047 14.5182 57.9922 14.4609C58.1849 14.3984 58.3438 14.3438 58.4688 14.2969C58.5938 14.2448 58.6953 14.2188 58.7734 14.2188C58.8203 14.2188 58.8594 14.2292 58.8906 14.25C58.9219 14.2656 58.9479 14.2969 58.9688 14.3438C58.9896 14.3906 59.0026 14.4583 59.0078 14.5469C59.0182 14.6302 59.0234 14.737 59.0234 14.8672C59.0234 14.9818 59.0208 15.0807 59.0156 15.1641C59.0104 15.2422 59.0026 15.3099 58.9922 15.3672C58.9818 15.4245 58.9661 15.474 58.9453 15.5156C58.9245 15.5521 58.8958 15.5885 58.8594 15.625C58.8281 15.6615 58.737 15.7109 58.5859 15.7734C58.4349 15.8359 58.2422 15.8984 58.0078 15.9609C57.7734 16.0182 57.5052 16.0677 57.2031 16.1094C56.901 16.1562 56.5781 16.1797 56.2344 16.1797C55.6146 16.1797 55.0703 16.1016 54.6016 15.9453C54.138 15.7891 53.75 15.5521 53.4375 15.2344C53.125 14.9167 52.8906 14.5156 52.7344 14.0312C52.5833 13.5469 52.5078 12.9792 52.5078 12.3281C52.5078 11.7083 52.5885 11.151 52.75 10.6562C52.9115 10.1562 53.1458 9.73438 53.4531 9.39062C53.7604 9.04167 54.1328 8.77604 54.5703 8.59375C55.013 8.41146 55.5104 8.32031 56.0625 8.32031C56.6458 8.32031 57.1432 8.40625 57.5547 8.57812C57.9714 8.75 58.3125 8.98958 58.5781 9.29688C58.8438 9.59896 59.0391 9.95833 59.1641 10.375C59.2891 10.7917 59.3516 11.2448 59.3516 11.7344V12.0469ZM57.4453 11.4844C57.4609 10.9323 57.349 10.5 57.1094 10.1875C56.875 9.86979 56.5104 9.71094 56.0156 9.71094C55.7656 9.71094 55.5469 9.75781 55.3594 9.85156C55.1771 9.94531 55.0234 10.0729 54.8984 10.2344C54.7786 10.3906 54.6849 10.5781 54.6172 10.7969C54.5547 11.0104 54.5182 11.2396 54.5078 11.4844H57.4453ZM65.4531 9.41406C65.4531 9.60156 65.4479 9.75521 65.4375 9.875C65.4271 9.99479 65.4115 10.0885 65.3906 10.1562C65.3698 10.224 65.3411 10.2708 65.3047 10.2969C65.2734 10.3229 65.2318 10.3359 65.1797 10.3359C65.138 10.3359 65.0911 10.3281 65.0391 10.3125C64.987 10.2917 64.9271 10.2708 64.8594 10.25C64.7969 10.2292 64.7266 10.2109 64.6484 10.1953C64.5703 10.1745 64.4844 10.1641 64.3906 10.1641C64.2812 10.1641 64.1719 10.1875 64.0625 10.2344C63.9531 10.276 63.8385 10.3438 63.7188 10.4375C63.6042 10.5312 63.4818 10.6562 63.3516 10.8125C63.2266 10.9688 63.0911 11.1615 62.9453 11.3906V15.7344C62.9453 15.7865 62.9297 15.8333 62.8984 15.875C62.8672 15.9115 62.8125 15.9427 62.7344 15.9688C62.6615 15.9948 62.5625 16.013 62.4375 16.0234C62.3125 16.0391 62.1536 16.0469 61.9609 16.0469C61.7682 16.0469 61.6094 16.0391 61.4844 16.0234C61.3594 16.013 61.2578 15.9948 61.1797 15.9688C61.1068 15.9427 61.0547 15.9115 61.0234 15.875C60.9922 15.8333 60.9766 15.7865 60.9766 15.7344V8.76562C60.9766 8.71354 60.9896 8.66927 61.0156 8.63281C61.0417 8.59115 61.0885 8.55729 61.1562 8.53125C61.224 8.50521 61.3099 8.48698 61.4141 8.47656C61.5234 8.46094 61.6589 8.45312 61.8203 8.45312C61.987 8.45312 62.125 8.46094 62.2344 8.47656C62.3438 8.48698 62.4271 8.50521 62.4844 8.53125C62.5469 8.55729 62.5911 8.59115 62.6172 8.63281C62.6432 8.66927 62.6562 8.71354 62.6562 8.76562V9.63281C62.8385 9.3724 63.0104 9.15885 63.1719 8.99219C63.3333 8.82031 63.487 8.6849 63.6328 8.58594C63.7786 8.48698 63.9245 8.41927 64.0703 8.38281C64.2161 8.34115 64.362 8.32031 64.5078 8.32031C64.5755 8.32031 64.6484 8.32552 64.7266 8.33594C64.8047 8.34115 64.8854 8.35417 64.9688 8.375C65.0521 8.39062 65.125 8.41146 65.1875 8.4375C65.25 8.45833 65.2943 8.48177 65.3203 8.50781C65.3516 8.53385 65.3724 8.5625 65.3828 8.59375C65.3984 8.625 65.4115 8.66927 65.4219 8.72656C65.4323 8.77865 65.4401 8.85938 65.4453 8.96875C65.4505 9.07812 65.4531 9.22656 65.4531 9.41406ZM74.4141 15.0469C74.4141 15.276 74.3984 15.4531 74.3672 15.5781C74.3411 15.6979 74.3047 15.7839 74.2578 15.8359C74.2109 15.8828 74.1406 15.9271 74.0469 15.9688C73.9583 16.0052 73.8516 16.0365 73.7266 16.0625C73.6068 16.0938 73.474 16.1172 73.3281 16.1328C73.1875 16.1484 73.0443 16.1562 72.8984 16.1562C72.5078 16.1562 72.1693 16.1068 71.8828 16.0078C71.5964 15.9089 71.3594 15.7578 71.1719 15.5547C70.9844 15.3464 70.8464 15.0859 70.7578 14.7734C70.6693 14.4609 70.625 14.0911 70.625 13.6641V10.0938H69.7891C69.6901 10.0938 69.6146 10.0339 69.5625 9.91406C69.5104 9.78906 69.4844 9.58333 69.4844 9.29688C69.4844 9.14583 69.4896 9.01823 69.5 8.91406C69.5156 8.8099 69.5365 8.72917 69.5625 8.67188C69.5885 8.60938 69.6198 8.5651 69.6562 8.53906C69.6979 8.51302 69.7448 8.5 69.7969 8.5H70.625V6.94531C70.625 6.89323 70.638 6.84635 70.6641 6.80469C70.6953 6.76302 70.7474 6.72917 70.8203 6.70312C70.8984 6.67188 71 6.65104 71.125 6.64062C71.2552 6.625 71.4141 6.61719 71.6016 6.61719C71.7943 6.61719 71.9531 6.625 72.0781 6.64062C72.2083 6.65104 72.3099 6.67188 72.3828 6.70312C72.4557 6.72917 72.5078 6.76302 72.5391 6.80469C72.5703 6.84635 72.5859 6.89323 72.5859 6.94531V8.5H74.1016C74.1536 8.5 74.1979 8.51302 74.2344 8.53906C74.276 8.5651 74.3099 8.60938 74.3359 8.67188C74.362 8.72917 74.3802 8.8099 74.3906 8.91406C74.4062 9.01823 74.4141 9.14583 74.4141 9.29688C74.4141 9.58333 74.388 9.78906 74.3359 9.91406C74.2839 10.0339 74.2083 10.0938 74.1094 10.0938H72.5859V13.3672C72.5859 13.7474 72.6458 14.0339 72.7656 14.2266C72.8854 14.4141 73.099 14.5078 73.4062 14.5078C73.5104 14.5078 73.6042 14.5 73.6875 14.4844C73.7708 14.4635 73.8438 14.4427 73.9062 14.4219C73.974 14.3958 74.0286 14.375 74.0703 14.3594C74.1172 14.3385 74.1589 14.3281 74.1953 14.3281C74.2266 14.3281 74.2552 14.3385 74.2812 14.3594C74.3125 14.375 74.3359 14.4115 74.3516 14.4688C74.3672 14.5208 74.3802 14.5938 74.3906 14.6875C74.4062 14.7812 74.4141 14.901 74.4141 15.0469ZM80.3125 9.41406C80.3125 9.60156 80.3073 9.75521 80.2969 9.875C80.2865 9.99479 80.2708 10.0885 80.25 10.1562C80.2292 10.224 80.2005 10.2708 80.1641 10.2969C80.1328 10.3229 80.0911 10.3359 80.0391 10.3359C79.9974 10.3359 79.9505 10.3281 79.8984 10.3125C79.8464 10.2917 79.7865 10.2708 79.7188 10.25C79.6562 10.2292 79.5859 10.2109 79.5078 10.1953C79.4297 10.1745 79.3438 10.1641 79.25 10.1641C79.1406 10.1641 79.0312 10.1875 78.9219 10.2344C78.8125 10.276 78.6979 10.3438 78.5781 10.4375C78.4635 10.5312 78.3411 10.6562 78.2109 10.8125C78.0859 10.9688 77.9505 11.1615 77.8047 11.3906V15.7344C77.8047 15.7865 77.7891 15.8333 77.7578 15.875C77.7266 15.9115 77.6719 15.9427 77.5938 15.9688C77.5208 15.9948 77.4219 16.013 77.2969 16.0234C77.1719 16.0391 77.013 16.0469 76.8203 16.0469C76.6276 16.0469 76.4688 16.0391 76.3438 16.0234C76.2188 16.013 76.1172 15.9948 76.0391 15.9688C75.9661 15.9427 75.9141 15.9115 75.8828 15.875C75.8516 15.8333 75.8359 15.7865 75.8359 15.7344V8.76562C75.8359 8.71354 75.849 8.66927 75.875 8.63281C75.901 8.59115 75.9479 8.55729 76.0156 8.53125C76.0833 8.50521 76.1693 8.48698 76.2734 8.47656C76.3828 8.46094 76.5182 8.45312 76.6797 8.45312C76.8464 8.45312 76.9844 8.46094 77.0938 8.47656C77.2031 8.48698 77.2865 8.50521 77.3438 8.53125C77.4062 8.55729 77.4505 8.59115 77.4766 8.63281C77.5026 8.66927 77.5156 8.71354 77.5156 8.76562V9.63281C77.6979 9.3724 77.8698 9.15885 78.0312 8.99219C78.1927 8.82031 78.3464 8.6849 78.4922 8.58594C78.638 8.48698 78.7839 8.41927 78.9297 8.38281C79.0755 8.34115 79.2214 8.32031 79.3672 8.32031C79.4349 8.32031 79.5078 8.32552 79.5859 8.33594C79.6641 8.34115 79.7448 8.35417 79.8281 8.375C79.9115 8.39062 79.9844 8.41146 80.0469 8.4375C80.1094 8.45833 80.1536 8.48177 80.1797 8.50781C80.2109 8.53385 80.2318 8.5625 80.2422 8.59375C80.2578 8.625 80.2708 8.66927 80.2812 8.72656C80.2917 8.77865 80.2995 8.85938 80.3047 8.96875C80.3099 9.07812 80.3125 9.22656 80.3125 9.41406ZM87.1016 15.7578C87.1016 15.8307 87.0755 15.888 87.0234 15.9297C86.9714 15.9714 86.888 16 86.7734 16.0156C86.6641 16.0365 86.5 16.0469 86.2812 16.0469C86.0469 16.0469 85.875 16.0365 85.7656 16.0156C85.6615 16 85.5859 15.9714 85.5391 15.9297C85.4974 15.888 85.4766 15.8307 85.4766 15.7578V15.2031C85.1901 15.5104 84.862 15.75 84.4922 15.9219C84.1276 16.0938 83.7214 16.1797 83.2734 16.1797C82.9036 16.1797 82.5625 16.1302 82.25 16.0312C81.9427 15.9375 81.6745 15.7969 81.4453 15.6094C81.2214 15.4167 81.0469 15.1797 80.9219 14.8984C80.7969 14.6172 80.7344 14.2891 80.7344 13.9141C80.7344 13.5078 80.8125 13.1562 80.9688 12.8594C81.1302 12.5573 81.3672 12.3099 81.6797 12.1172C81.9974 11.9193 82.3906 11.7734 82.8594 11.6797C83.3281 11.5859 83.8724 11.5391 84.4922 11.5391H85.1719V11.1172C85.1719 10.8984 85.1484 10.7083 85.1016 10.5469C85.0599 10.3802 84.987 10.2422 84.8828 10.1328C84.7839 10.0234 84.6484 9.94271 84.4766 9.89062C84.3099 9.83854 84.1016 9.8125 83.8516 9.8125C83.5234 9.8125 83.2292 9.84896 82.9688 9.92188C82.7135 9.99479 82.487 10.0755 82.2891 10.1641C82.0911 10.2526 81.9245 10.3333 81.7891 10.4062C81.6589 10.4792 81.5521 10.5156 81.4688 10.5156C81.4115 10.5156 81.3594 10.4974 81.3125 10.4609C81.2708 10.4245 81.2344 10.3724 81.2031 10.3047C81.1771 10.237 81.1562 10.1536 81.1406 10.0547C81.125 9.95573 81.1172 9.84635 81.1172 9.72656C81.1172 9.5651 81.1302 9.4375 81.1562 9.34375C81.1823 9.25 81.2318 9.16667 81.3047 9.09375C81.3776 9.01562 81.5052 8.93229 81.6875 8.84375C81.8698 8.75 82.0833 8.66406 82.3281 8.58594C82.5729 8.50781 82.8385 8.44531 83.125 8.39844C83.4167 8.34635 83.7161 8.32031 84.0234 8.32031C84.5703 8.32031 85.0365 8.375 85.4219 8.48438C85.8125 8.58854 86.1328 8.7526 86.3828 8.97656C86.6328 9.19531 86.8151 9.47917 86.9297 9.82812C87.0443 10.1771 87.1016 10.5911 87.1016 11.0703V15.7578ZM85.1719 12.7734H84.4219C84.1042 12.7734 83.8333 12.7969 83.6094 12.8438C83.3854 12.8906 83.2031 12.9609 83.0625 13.0547C82.9219 13.1484 82.8177 13.263 82.75 13.3984C82.6875 13.5286 82.6562 13.6797 82.6562 13.8516C82.6562 14.1432 82.7474 14.3724 82.9297 14.5391C83.1172 14.7057 83.375 14.7891 83.7031 14.7891C83.9792 14.7891 84.2318 14.7188 84.4609 14.5781C84.6953 14.4375 84.9323 14.2318 85.1719 13.9609V12.7734ZM91.0391 15.7344C91.0391 15.7865 91.0234 15.8333 90.9922 15.875C90.9609 15.9115 90.9062 15.9427 90.8281 15.9688C90.7552 15.9948 90.6562 16.013 90.5312 16.0234C90.4062 16.0391 90.2474 16.0469 90.0547 16.0469C89.862 16.0469 89.7031 16.0391 89.5781 16.0234C89.4531 16.013 89.3516 15.9948 89.2734 15.9688C89.2005 15.9427 89.1484 15.9115 89.1172 15.875C89.0859 15.8333 89.0703 15.7865 89.0703 15.7344V8.78125C89.0703 8.72917 89.0859 8.6849 89.1172 8.64844C89.1484 8.60677 89.2005 8.57292 89.2734 8.54688C89.3516 8.51562 89.4531 8.49219 89.5781 8.47656C89.7031 8.46094 89.862 8.45312 90.0547 8.45312C90.2474 8.45312 90.4062 8.46094 90.5312 8.47656C90.6562 8.49219 90.7552 8.51562 90.8281 8.54688C90.9062 8.57292 90.9609 8.60677 90.9922 8.64844C91.0234 8.6849 91.0391 8.72917 91.0391 8.78125V15.7344ZM91.1875 6.40625C91.1875 6.80208 91.1068 7.07552 90.9453 7.22656C90.7839 7.3776 90.4844 7.45312 90.0469 7.45312C89.6042 7.45312 89.3047 7.38021 89.1484 7.23438C88.9974 7.08854 88.9219 6.82552 88.9219 6.44531C88.9219 6.04948 89 5.77604 89.1562 5.625C89.3177 5.46875 89.6198 5.39062 90.0625 5.39062C90.5 5.39062 90.7969 5.46615 90.9531 5.61719C91.1094 5.76302 91.1875 6.02604 91.1875 6.40625ZM94.9766 15.7344C94.9766 15.7865 94.9609 15.8333 94.9297 15.875C94.8984 15.9115 94.8438 15.9427 94.7656 15.9688C94.6927 15.9948 94.5938 16.013 94.4688 16.0234C94.3438 16.0391 94.1849 16.0469 93.9922 16.0469C93.7995 16.0469 93.6406 16.0391 93.5156 16.0234C93.3906 16.013 93.2891 15.9948 93.2109 15.9688C93.138 15.9427 93.0859 15.9115 93.0547 15.875C93.0234 15.8333 93.0078 15.7865 93.0078 15.7344V5.46094C93.0078 5.40885 93.0234 5.36198 93.0547 5.32031C93.0859 5.27865 93.138 5.24479 93.2109 5.21875C93.2891 5.1875 93.3906 5.16406 93.5156 5.14844C93.6406 5.13281 93.7995 5.125 93.9922 5.125C94.1849 5.125 94.3438 5.13281 94.4688 5.14844C94.5938 5.16406 94.6927 5.1875 94.7656 5.21875C94.8438 5.24479 94.8984 5.27865 94.9297 5.32031C94.9609 5.36198 94.9766 5.40885 94.9766 5.46094V15.7344ZM103.383 12.0469C103.383 12.2865 103.328 12.4635 103.219 12.5781C103.115 12.6927 102.969 12.75 102.781 12.75H98.5391C98.5391 13.0469 98.5729 13.3177 98.6406 13.5625C98.7135 13.8021 98.8255 14.0078 98.9766 14.1797C99.1328 14.3464 99.3307 14.474 99.5703 14.5625C99.8151 14.651 100.107 14.6953 100.445 14.6953C100.789 14.6953 101.091 14.6719 101.352 14.625C101.612 14.5729 101.836 14.5182 102.023 14.4609C102.216 14.3984 102.375 14.3438 102.5 14.2969C102.625 14.2448 102.727 14.2188 102.805 14.2188C102.852 14.2188 102.891 14.2292 102.922 14.25C102.953 14.2656 102.979 14.2969 103 14.3438C103.021 14.3906 103.034 14.4583 103.039 14.5469C103.049 14.6302 103.055 14.737 103.055 14.8672C103.055 14.9818 103.052 15.0807 103.047 15.1641C103.042 15.2422 103.034 15.3099 103.023 15.3672C103.013 15.4245 102.997 15.474 102.977 15.5156C102.956 15.5521 102.927 15.5885 102.891 15.625C102.859 15.6615 102.768 15.7109 102.617 15.7734C102.466 15.8359 102.273 15.8984 102.039 15.9609C101.805 16.0182 101.536 16.0677 101.234 16.1094C100.932 16.1562 100.609 16.1797 100.266 16.1797C99.6458 16.1797 99.1016 16.1016 98.6328 15.9453C98.1693 15.7891 97.7812 15.5521 97.4688 15.2344C97.1562 14.9167 96.9219 14.5156 96.7656 14.0312C96.6146 13.5469 96.5391 12.9792 96.5391 12.3281C96.5391 11.7083 96.6198 11.151 96.7812 10.6562C96.9427 10.1562 97.1771 9.73438 97.4844 9.39062C97.7917 9.04167 98.1641 8.77604 98.6016 8.59375C99.0443 8.41146 99.5417 8.32031 100.094 8.32031C100.677 8.32031 101.174 8.40625 101.586 8.57812C102.003 8.75 102.344 8.98958 102.609 9.29688C102.875 9.59896 103.07 9.95833 103.195 10.375C103.32 10.7917 103.383 11.2448 103.383 11.7344V12.0469ZM101.477 11.4844C101.492 10.9323 101.38 10.5 101.141 10.1875C100.906 9.86979 100.542 9.71094 100.047 9.71094C99.7969 9.71094 99.5781 9.75781 99.3906 9.85156C99.2083 9.94531 99.0547 10.0729 98.9297 10.2344C98.8099 10.3906 98.7161 10.5781 98.6484 10.7969C98.5859 11.0104 98.5495 11.2396 98.5391 11.4844H101.477ZM109.484 9.41406C109.484 9.60156 109.479 9.75521 109.469 9.875C109.458 9.99479 109.443 10.0885 109.422 10.1562C109.401 10.224 109.372 10.2708 109.336 10.2969C109.305 10.3229 109.263 10.3359 109.211 10.3359C109.169 10.3359 109.122 10.3281 109.07 10.3125C109.018 10.2917 108.958 10.2708 108.891 10.25C108.828 10.2292 108.758 10.2109 108.68 10.1953C108.602 10.1745 108.516 10.1641 108.422 10.1641C108.312 10.1641 108.203 10.1875 108.094 10.2344C107.984 10.276 107.87 10.3438 107.75 10.4375C107.635 10.5312 107.513 10.6562 107.383 10.8125C107.258 10.9688 107.122 11.1615 106.977 11.3906V15.7344C106.977 15.7865 106.961 15.8333 106.93 15.875C106.898 15.9115 106.844 15.9427 106.766 15.9688C106.693 15.9948 106.594 16.013 106.469 16.0234C106.344 16.0391 106.185 16.0469 105.992 16.0469C105.799 16.0469 105.641 16.0391 105.516 16.0234C105.391 16.013 105.289 15.9948 105.211 15.9688C105.138 15.9427 105.086 15.9115 105.055 15.875C105.023 15.8333 105.008 15.7865 105.008 15.7344V8.76562C105.008 8.71354 105.021 8.66927 105.047 8.63281C105.073 8.59115 105.12 8.55729 105.188 8.53125C105.255 8.50521 105.341 8.48698 105.445 8.47656C105.555 8.46094 105.69 8.45312 105.852 8.45312C106.018 8.45312 106.156 8.46094 106.266 8.47656C106.375 8.48698 106.458 8.50521 106.516 8.53125C106.578 8.55729 106.622 8.59115 106.648 8.63281C106.674 8.66927 106.688 8.71354 106.688 8.76562V9.63281C106.87 9.3724 107.042 9.15885 107.203 8.99219C107.365 8.82031 107.518 8.6849 107.664 8.58594C107.81 8.48698 107.956 8.41927 108.102 8.38281C108.247 8.34115 108.393 8.32031 108.539 8.32031C108.607 8.32031 108.68 8.32552 108.758 8.33594C108.836 8.34115 108.917 8.35417 109 8.375C109.083 8.39062 109.156 8.41146 109.219 8.4375C109.281 8.45833 109.326 8.48177 109.352 8.50781C109.383 8.53385 109.404 8.5625 109.414 8.59375C109.43 8.625 109.443 8.66927 109.453 8.72656C109.464 8.77865 109.471 8.85938 109.477 8.96875C109.482 9.07812 109.484 9.22656 109.484 9.41406Z" fill="#541197"/>
<path d="M17 5V20L32 12.5L17 5Z" fill="#541197"/>
</svg>
