<svg width="18" height="19" viewBox="0 0 18 19" fill="none" xmlns="http://www.w3.org/2000/svg">
<path d="M12.5445 11.5833H11.7905L11.5232 11.3021C12.4586 10.1146 13.0218 8.57292 13.0218 6.89583C13.0218 3.15625 10.2441 0.125 6.81728 0.125C3.39046 0.125 0.612732 3.15625 0.612732 6.89583C0.612732 10.6354 3.39046 13.6667 6.81728 13.6667C8.3541 13.6667 9.76682 13.0521 10.855 12.0312L11.1127 12.3229V13.1458L15.8855 18.3438L17.3077 16.7917L12.5445 11.5833ZM6.81728 11.5833C4.44046 11.5833 2.52182 9.48958 2.52182 6.89583C2.52182 4.30208 4.44046 2.20833 6.81728 2.20833C9.1941 2.20833 11.1127 4.30208 11.1127 6.89583C11.1127 9.48958 9.1941 11.5833 6.81728 11.5833Z" fill="#D9D9D9"/>
</svg>
